<svg id="b143054e-a627-4c7b-b2f2-8841694738ad" data-name="Layer 1" xmlns="http://www.w3.org/2000/svg" viewBox="0 0 1283.01 1257.93"><title>Untitled-2</title><polyline points="639.86 623.48 381.73 623.48 382.37 623.48 639.21 1250.32 639.21 1249.69 639.21 624.11" style="stroke:#000;stroke-miterlimit:10;stroke-width:3px"/><polyline points="639.86 623.48 897.99 623.48 898.63 623.48 639.21 1249.07 639.21 1248.44 639.21 622.86" style="fill:#fff;stroke:#fff;stroke-miterlimit:10;stroke-width:3px"/><polyline points="183.57 179.96 1.04 356.9 1.5 356.46 640.34 623.64 639.88 623.2 183.57 180.85" style="stroke:#000;stroke-miterlimit:10;stroke-width:3px"/><polyline points="183.57 179.96 366.09 3.02 366.55 2.58 639.42 622.76 638.97 622.32 182.66 179.96" style="fill:#fff;stroke:#fff;stroke-miterlimit:10;stroke-width:3px"/><polyline points="1097.35 180.78 914.82 3.83 915.28 4.28 639.67 623.57 640.12 623.13 1096.43 180.78" style="stroke:#000;stroke-miterlimit:10;stroke-width:3px"/><polyline points="1097.35 180.78 1279.87 357.72 1280.33 358.16 640.58 622.69 641.04 622.25 1097.35 179.89" style="fill:#fff;stroke:#fff;stroke-miterlimit:10;stroke-width:3px"/></svg>